<svg xmlns="http://www.w3.org/2000/svg" xmlns:xlink="http://www.w3.org/1999/xlink" width="500" zoomAndPan="magnify" viewBox="0 0 375 374.999991" height="500" preserveAspectRatio="xMidYMid meet" version="1.2"><defs><clipPath id="6e181c4de4"><path d="M 49.5 147.042969 L 325.488281 147.042969 L 325.488281 236.269531 L 49.5 236.269531 Z M 49.5 147.042969 "/></clipPath><clipPath id="5f3b028f02"><path d="M 121.566406 225.414062 L 253.433594 225.414062 L 253.433594 247.132812 L 121.566406 247.132812 Z M 121.566406 225.414062 "/></clipPath><clipPath id="2dda7c3864"><path d="M 0.566406 0.414062 L 132.433594 0.414062 L 132.433594 22.132812 L 0.566406 22.132812 Z M 0.566406 0.414062 "/></clipPath><clipPath id="4f99305df6"><rect x="0" width="133" y="0" height="23"/></clipPath><clipPath id="3e8423cdc4"><path d="M 227 173 L 259 173 L 259 209 L 227 209 Z M 227 173 "/></clipPath><clipPath id="a370bbbfd4"><path d="M 230.808594 172.132812 L 259.210938 174.515625 L 256.140625 211.136719 L 227.738281 208.753906 Z M 230.808594 172.132812 "/></clipPath><clipPath id="eaa82dc96d"><path d="M 230.808594 172.132812 L 259.210938 174.515625 L 256.140625 211.136719 L 227.738281 208.753906 Z M 230.808594 172.132812 "/></clipPath></defs><g id="b22613c64a"><g clip-rule="nonzero" clip-path="url(#6e181c4de4)"><path style="fill:none;stroke-width:8;stroke-linecap:butt;stroke-linejoin:miter;stroke:#ffffff;stroke-opacity:1;stroke-miterlimit:4;" d="M -0.000337666 -0.00144426 L 367.984085 -0.00144426 L 367.984085 118.967321 L -0.000337666 118.967321 Z M -0.000337666 -0.00144426 " transform="matrix(0.75,0,0,0.75,49.500253,147.044052)"/></g><g clip-rule="nonzero" clip-path="url(#5f3b028f02)"><g transform="matrix(1,0,0,1,121,225)"><g clip-path="url(#4f99305df6)"><g clip-rule="nonzero" clip-path="url(#2dda7c3864)"><path style=" stroke:none;fill-rule:nonzero;fill:#191919;fill-opacity:1;" d="M 0.566406 0.414062 L 132.402344 0.414062 L 132.402344 22.132812 L 0.566406 22.132812 Z M 0.566406 0.414062 "/></g></g></g></g><g style="fill:#ffffff;fill-opacity:1;"><g transform="translate(61.740377, 216.784205)"><path style="stroke:none" d="M -3.78125 0 L 8.6875 -54.109375 L 30.359375 -54.109375 L 27.96875 -43.59375 L 17.203125 -43.59375 L 15.1875 -34.96875 L 25.390625 -34.96875 L 23 -24.5625 L 12.78125 -24.5625 L 7.125 0 Z M -3.78125 0 "/></g></g><g style="fill:#ffffff;fill-opacity:1;"><g transform="translate(86.877403, 216.784205)"><path style="stroke:none" d="M -4.28125 0 L 8.1875 -54.109375 L 18.640625 -54.109375 L 6.171875 0 Z M -4.28125 0 "/></g></g><g style="fill:#ffffff;fill-opacity:1;"><g transform="translate(101.17842, 216.784205)"><path style="stroke:none" d="M -5.359375 0 L 7.0625 -28.734375 L 8.3125 -54.1875 L 18.90625 -54.1875 L 17.453125 -35.53125 L 24.1875 -54.1875 L 34.84375 -54.1875 L 24.3125 -28.734375 L 23.5 0 L 12.53125 0 L 13.984375 -21.171875 L 5.671875 0 Z M -5.359375 0 "/></g></g><g style="fill:#ffffff;fill-opacity:1;"><g transform="translate(131.670457, 216.784205)"><path style="stroke:none" d=""/></g></g><g style="fill:#ffffff;fill-opacity:1;"><g transform="translate(146.412472, 216.784205)"><path style="stroke:none" d="M 5.359375 0.625 C 2.117188 0.625 -0.078125 -0.523438 -1.234375 -2.828125 C -2.390625 -5.140625 -2.546875 -8.144531 -1.703125 -11.84375 C -0.734375 -15.957031 0.628906 -19.265625 2.390625 -21.765625 C 4.160156 -24.265625 6.515625 -26.457031 9.453125 -28.34375 C 8.316406 -32.375 8.082031 -35.863281 8.75 -38.8125 C 9.46875 -41.875 11.023438 -44.273438 13.421875 -46.015625 C 15.816406 -47.765625 18.585938 -48.640625 21.734375 -48.640625 C 24.835938 -48.640625 27.195312 -47.804688 28.8125 -46.140625 C 30.4375 -44.484375 30.910156 -42.164062 30.234375 -39.1875 C 29.234375 -34.820312 25.875 -30.726562 20.15625 -26.90625 L 21.046875 -22.296875 C 22.929688 -25.410156 25.238281 -27.828125 27.96875 -29.546875 L 30.75 -22.875 C 27.800781 -20.9375 25.046875 -17.742188 22.484375 -13.296875 L 24.890625 0 L 14.421875 0 L 13.984375 -2.96875 C 12.847656 -1.914062 11.523438 -1.050781 10.015625 -0.375 C 8.503906 0.289062 6.953125 0.625 5.359375 0.625 Z M 19.65625 -34.71875 C 20.195312 -35.175781 20.726562 -35.832031 21.25 -36.6875 C 21.78125 -37.550781 22.148438 -38.382812 22.359375 -39.1875 C 22.660156 -40.445312 22.203125 -41.078125 20.984375 -41.078125 C 20.472656 -41.078125 20.03125 -40.894531 19.65625 -40.53125 C 19.28125 -40.175781 19.03125 -39.726562 18.90625 -39.1875 C 18.644531 -38.09375 18.6875 -36.410156 19.03125 -34.140625 Z M 8.875 -7.25 C 9.675781 -7.25 10.410156 -7.550781 11.078125 -8.15625 C 11.753906 -8.769531 12.28125 -9.472656 12.65625 -10.265625 L 10.96875 -19.21875 L 10.453125 -18.640625 C 10.035156 -18.140625 9.59375 -17.34375 9.125 -16.25 C 8.664062 -15.15625 8.3125 -14.085938 8.0625 -13.046875 L 8 -12.71875 C 7.625 -11.082031 7.445312 -9.757812 7.46875 -8.75 C 7.488281 -7.75 7.957031 -7.25 8.875 -7.25 Z M 8.875 -7.25 "/></g></g><g style="fill:#ffffff;fill-opacity:1;"><g transform="translate(178.227514, 216.784205)"><path style="stroke:none" d=""/></g></g><g style="fill:#ffffff;fill-opacity:1;"><g transform="translate(192.969529, 216.784205)"><path style="stroke:none" d="M 8.6875 -54.109375 L 23.375 -54.109375 C 27.320312 -54.109375 29.96875 -53.144531 31.3125 -51.21875 C 32.65625 -49.289062 32.820312 -46.140625 31.8125 -41.765625 L 31.25 -39.375 C 30.070312 -34.207031 27.507812 -31.117188 23.5625 -30.109375 C 25.707031 -29.523438 26.988281 -28.160156 27.40625 -26.015625 C 27.820312 -23.878906 27.632812 -21.046875 26.84375 -17.515625 C 25.5 -11.765625 23.628906 -7.40625 21.234375 -4.4375 C 18.835938 -1.476562 15.394531 0 10.90625 0 L -3.78125 0 Z M 16.828125 -33.765625 C 17.742188 -33.765625 18.441406 -34.109375 18.921875 -34.796875 C 19.410156 -35.492188 19.800781 -36.472656 20.09375 -37.734375 L 21.359375 -43.15625 C 21.773438 -44.914062 21.207031 -45.796875 19.65625 -45.796875 L 17.390625 -45.796875 L 14.609375 -33.765625 Z M 10.078125 -9.515625 C 12.890625 -9.515625 14.59375 -10.859375 15.1875 -13.546875 L 16.75 -20.28125 C 17.132812 -21.925781 17.175781 -23.164062 16.875 -24 C 16.582031 -24.84375 15.828125 -25.265625 14.609375 -25.265625 L 12.59375 -25.265625 L 9.015625 -9.578125 Z M 10.078125 -9.515625 "/></g></g><g style="fill:#ffffff;fill-opacity:1;"><g transform="translate(223.146566, 216.784205)"><path style="stroke:none" d="M -3.78125 0 L 8.6875 -54.109375 L 19.53125 -54.109375 L 9.203125 -9.203125 L 20.34375 -9.203125 L 18.203125 0 Z M -3.78125 0 "/></g></g><g style="fill:#ffffff;fill-opacity:1;"><g transform="translate(248.157593, 216.784205)"><path style="stroke:none" d="M -4.28125 0 L 8.1875 -54.109375 L 18.640625 -54.109375 L 6.171875 0 Z M -4.28125 0 "/></g></g><g style="fill:#ffffff;fill-opacity:1;"><g transform="translate(262.45861, 216.784205)"><path style="stroke:none" d="M 0.8125 0 L 10.90625 -43.71875 L 4.46875 -43.71875 L 6.859375 -54.109375 L 30.5625 -54.109375 L 28.15625 -43.71875 L 21.734375 -43.71875 L 11.65625 0 Z M 0.8125 0 "/></g></g><g style="fill:#ffffff;fill-opacity:1;"><g transform="translate(287.406637, 216.784205)"><path style="stroke:none" d="M -5.171875 0 L -2.90625 -9.828125 L 17.390625 -44.15625 L 6.234375 -44.15625 L 8.5 -54.109375 L 31.125 -54.109375 L 28.984375 -44.671875 L 8.25 -9.953125 L 20.34375 -9.953125 L 18.078125 0 Z M -5.171875 0 "/></g></g><g style="fill:#ffcc00;fill-opacity:1;"><g transform="translate(122.786312, 241.899419)"><path style="stroke:none" d="M 2.203125 -13.75 L 6 -13.75 C 6.976562 -13.75 7.648438 -13.472656 8.015625 -12.921875 C 8.390625 -12.378906 8.457031 -11.578125 8.21875 -10.515625 L 6.765625 -4.078125 C 6.453125 -2.722656 5.976562 -1.703125 5.34375 -1.015625 C 4.71875 -0.335938 3.847656 0 2.734375 0 L -0.953125 0 Z M 2.84375 -2.4375 C 3.34375 -2.4375 3.65625 -2.679688 3.78125 -3.171875 L 5.40625 -10.25 C 5.476562 -10.5625 5.503906 -10.796875 5.484375 -10.953125 C 5.472656 -11.109375 5.410156 -11.210938 5.296875 -11.265625 C 5.191406 -11.316406 5.003906 -11.34375 4.734375 -11.34375 L 4.4375 -11.34375 L 2.375 -2.4375 Z M 2.84375 -2.4375 "/></g></g><g style="fill:#ffcc00;fill-opacity:1;"><g transform="translate(130.992401, 241.899419)"><path style="stroke:none" d="M -1.328125 0 L 3.171875 -13.75 L 7.828125 -13.75 L 5.96875 0 L 3.359375 0 L 3.671875 -2.21875 L 2.015625 -2.21875 L 1.34375 0 Z M 2.734375 -4.421875 L 3.984375 -4.421875 L 4.96875 -11.40625 L 4.84375 -11.40625 Z M 2.734375 -4.421875 "/></g></g><g style="fill:#ffcc00;fill-opacity:1;"><g transform="translate(139.070522, 241.899419)"><path style="stroke:none" d="M 2.265625 0.125 C 1.023438 0.125 0.203125 -0.179688 -0.203125 -0.796875 C -0.617188 -1.421875 -0.671875 -2.421875 -0.359375 -3.796875 L -0.046875 -5.140625 L 2.65625 -5.140625 L 2.25 -3.421875 C 2.09375 -2.742188 2.234375 -2.40625 2.671875 -2.40625 C 2.921875 -2.40625 3.109375 -2.472656 3.234375 -2.609375 C 3.367188 -2.753906 3.472656 -3 3.546875 -3.34375 C 3.660156 -3.789062 3.691406 -4.160156 3.640625 -4.453125 C 3.597656 -4.742188 3.519531 -4.988281 3.40625 -5.1875 C 3.289062 -5.382812 3.066406 -5.691406 2.734375 -6.109375 L 1.828125 -7.296875 C 1.117188 -8.191406 0.890625 -9.179688 1.140625 -10.265625 C 1.398438 -11.441406 1.867188 -12.335938 2.546875 -12.953125 C 3.234375 -13.566406 4.097656 -13.875 5.140625 -13.875 C 6.367188 -13.875 7.179688 -13.546875 7.578125 -12.890625 C 7.972656 -12.234375 8.003906 -11.207031 7.671875 -9.8125 L 4.875 -9.8125 L 5.09375 -10.75 C 5.132812 -10.9375 5.113281 -11.082031 5.03125 -11.1875 C 4.957031 -11.289062 4.832031 -11.34375 4.65625 -11.34375 C 4.4375 -11.34375 4.257812 -11.28125 4.125 -11.15625 C 3.988281 -11.039062 3.898438 -10.882812 3.859375 -10.6875 C 3.753906 -10.238281 3.898438 -9.773438 4.296875 -9.296875 L 5.546875 -7.765625 C 5.835938 -7.398438 6.066406 -7.050781 6.234375 -6.71875 C 6.410156 -6.394531 6.519531 -6.007812 6.5625 -5.5625 C 6.613281 -5.125 6.570312 -4.601562 6.4375 -4 C 6.113281 -2.644531 5.625 -1.617188 4.96875 -0.921875 C 4.3125 -0.222656 3.410156 0.125 2.265625 0.125 Z M 2.265625 0.125 "/></g></g><g style="fill:#ffcc00;fill-opacity:1;"><g transform="translate(146.764739, 241.899419)"><path style="stroke:none" d=""/></g></g><g style="fill:#ffcc00;fill-opacity:1;"><g transform="translate(150.827826, 241.899419)"><path style="stroke:none" d="M -0.953125 0 L 2.203125 -13.75 L 7.71875 -13.75 L 7.109375 -11.09375 L 4.40625 -11.09375 L 3.78125 -8.421875 L 6.375 -8.421875 L 5.78125 -5.828125 L 3.1875 -5.828125 L 2.453125 -2.671875 L 5.328125 -2.671875 L 4.71875 0 Z M -0.953125 0 "/></g></g><g style="fill:#ffcc00;fill-opacity:1;"><g transform="translate(157.738226, 241.899419)"><path style="stroke:none" d="M -0.953125 0 L 2.203125 -13.75 L 5.046875 -13.75 L 4.78125 -7.171875 L 6.296875 -13.75 L 8.953125 -13.75 L 5.796875 0 L 3.109375 0 L 3.3125 -6.875 L 1.734375 0 Z M -0.953125 0 "/></g></g><g style="fill:#ffcc00;fill-opacity:1;"><g transform="translate(166.024297, 241.899419)"><path style="stroke:none" d="M 2.203125 -13.75 L 6 -13.75 C 6.976562 -13.75 7.648438 -13.472656 8.015625 -12.921875 C 8.390625 -12.378906 8.457031 -11.578125 8.21875 -10.515625 L 6.765625 -4.078125 C 6.453125 -2.722656 5.976562 -1.703125 5.34375 -1.015625 C 4.71875 -0.335938 3.847656 0 2.734375 0 L -0.953125 0 Z M 2.84375 -2.4375 C 3.34375 -2.4375 3.65625 -2.679688 3.78125 -3.171875 L 5.40625 -10.25 C 5.476562 -10.5625 5.503906 -10.796875 5.484375 -10.953125 C 5.472656 -11.109375 5.410156 -11.210938 5.296875 -11.265625 C 5.191406 -11.316406 5.003906 -11.34375 4.734375 -11.34375 L 4.4375 -11.34375 L 2.375 -2.4375 Z M 2.84375 -2.4375 "/></g></g><g style="fill:#ffcc00;fill-opacity:1;"><g transform="translate(174.230386, 241.899419)"><path style="stroke:none" d="M -0.953125 0 L 2.203125 -13.75 L 7.71875 -13.75 L 7.109375 -11.09375 L 4.40625 -11.09375 L 3.78125 -8.421875 L 6.375 -8.421875 L 5.78125 -5.828125 L 3.1875 -5.828125 L 2.453125 -2.671875 L 5.328125 -2.671875 L 4.71875 0 Z M -0.953125 0 "/></g></g><g style="fill:#ffcc00;fill-opacity:1;"><g transform="translate(181.140786, 241.899419)"><path style="stroke:none" d=""/></g></g><g style="fill:#ffcc00;fill-opacity:1;"><g transform="translate(185.203873, 241.899419)"><path style="stroke:none" d="M 2.203125 -13.75 L 6 -13.75 C 6.976562 -13.75 7.648438 -13.472656 8.015625 -12.921875 C 8.390625 -12.378906 8.457031 -11.578125 8.21875 -10.515625 L 6.765625 -4.078125 C 6.453125 -2.722656 5.976562 -1.703125 5.34375 -1.015625 C 4.71875 -0.335938 3.847656 0 2.734375 0 L -0.953125 0 Z M 2.84375 -2.4375 C 3.34375 -2.4375 3.65625 -2.679688 3.78125 -3.171875 L 5.40625 -10.25 C 5.476562 -10.5625 5.503906 -10.796875 5.484375 -10.953125 C 5.472656 -11.109375 5.410156 -11.210938 5.296875 -11.265625 C 5.191406 -11.316406 5.003906 -11.34375 4.734375 -11.34375 L 4.4375 -11.34375 L 2.375 -2.4375 Z M 2.84375 -2.4375 "/></g></g><g style="fill:#ffcc00;fill-opacity:1;"><g transform="translate(193.409961, 241.899419)"><path style="stroke:none" d="M -0.953125 0 L 2.203125 -13.75 L 7.71875 -13.75 L 7.109375 -11.09375 L 4.40625 -11.09375 L 3.78125 -8.421875 L 6.375 -8.421875 L 5.78125 -5.828125 L 3.1875 -5.828125 L 2.453125 -2.671875 L 5.328125 -2.671875 L 4.71875 0 Z M -0.953125 0 "/></g></g><g style="fill:#ffcc00;fill-opacity:1;"><g transform="translate(200.320361, 241.899419)"><path style="stroke:none" d="M 2.265625 0.125 C 1.023438 0.125 0.203125 -0.179688 -0.203125 -0.796875 C -0.617188 -1.421875 -0.671875 -2.421875 -0.359375 -3.796875 L -0.046875 -5.140625 L 2.65625 -5.140625 L 2.25 -3.421875 C 2.09375 -2.742188 2.234375 -2.40625 2.671875 -2.40625 C 2.921875 -2.40625 3.109375 -2.472656 3.234375 -2.609375 C 3.367188 -2.753906 3.472656 -3 3.546875 -3.34375 C 3.660156 -3.789062 3.691406 -4.160156 3.640625 -4.453125 C 3.597656 -4.742188 3.519531 -4.988281 3.40625 -5.1875 C 3.289062 -5.382812 3.066406 -5.691406 2.734375 -6.109375 L 1.828125 -7.296875 C 1.117188 -8.191406 0.890625 -9.179688 1.140625 -10.265625 C 1.398438 -11.441406 1.867188 -12.335938 2.546875 -12.953125 C 3.234375 -13.566406 4.097656 -13.875 5.140625 -13.875 C 6.367188 -13.875 7.179688 -13.546875 7.578125 -12.890625 C 7.972656 -12.234375 8.003906 -11.207031 7.671875 -9.8125 L 4.875 -9.8125 L 5.09375 -10.75 C 5.132812 -10.9375 5.113281 -11.082031 5.03125 -11.1875 C 4.957031 -11.289062 4.832031 -11.34375 4.65625 -11.34375 C 4.4375 -11.34375 4.257812 -11.28125 4.125 -11.15625 C 3.988281 -11.039062 3.898438 -10.882812 3.859375 -10.6875 C 3.753906 -10.238281 3.898438 -9.773438 4.296875 -9.296875 L 5.546875 -7.765625 C 5.835938 -7.398438 6.066406 -7.050781 6.234375 -6.71875 C 6.410156 -6.394531 6.519531 -6.007812 6.5625 -5.5625 C 6.613281 -5.125 6.570312 -4.601562 6.4375 -4 C 6.113281 -2.644531 5.625 -1.617188 4.96875 -0.921875 C 4.3125 -0.222656 3.410156 0.125 2.265625 0.125 Z M 2.265625 0.125 "/></g></g><g style="fill:#ffcc00;fill-opacity:1;"><g transform="translate(208.014578, 241.899419)"><path style="stroke:none" d=""/></g></g><g style="fill:#ffcc00;fill-opacity:1;"><g transform="translate(212.077666, 241.899419)"><path style="stroke:none" d="M 2.203125 0.125 C 1.203125 0.125 0.472656 -0.1875 0.015625 -0.8125 C -0.441406 -1.445312 -0.539062 -2.3125 -0.28125 -3.40625 L 1.171875 -9.75 C 1.484375 -11.113281 1.992188 -12.140625 2.703125 -12.828125 C 3.410156 -13.523438 4.34375 -13.875 5.5 -13.875 C 6.519531 -13.875 7.273438 -13.59375 7.765625 -13.03125 C 8.253906 -12.476562 8.375 -11.679688 8.125 -10.640625 L 7.578125 -8.265625 L 4.84375 -8.265625 L 5.328125 -10.296875 C 5.410156 -10.691406 5.421875 -10.960938 5.359375 -11.109375 C 5.304688 -11.265625 5.160156 -11.34375 4.921875 -11.34375 C 4.679688 -11.34375 4.492188 -11.253906 4.359375 -11.078125 C 4.222656 -10.910156 4.117188 -10.664062 4.046875 -10.34375 L 2.453125 -3.4375 C 2.367188 -3.070312 2.359375 -2.804688 2.421875 -2.640625 C 2.492188 -2.484375 2.632812 -2.40625 2.84375 -2.40625 C 3.269531 -2.40625 3.566406 -2.75 3.734375 -3.4375 L 4.296875 -5.921875 L 7.078125 -5.921875 L 6.484375 -3.328125 C 5.941406 -1.023438 4.515625 0.125 2.203125 0.125 Z M 2.203125 0.125 "/></g></g><g style="fill:#ffcc00;fill-opacity:1;"><g transform="translate(219.979833, 241.899419)"><path style="stroke:none" d="M -0.953125 0 L 2.203125 -13.75 L 4.9375 -13.75 L 3.8125 -8.828125 L 5.109375 -8.828125 L 6.234375 -13.75 L 8.96875 -13.75 L 5.8125 0 L 3.078125 0 L 4.515625 -6.234375 L 3.21875 -6.234375 L 1.78125 0 Z M -0.953125 0 "/></g></g><g style="fill:#ffcc00;fill-opacity:1;"><g transform="translate(228.281903, 241.899419)"><path style="stroke:none" d="M -1.328125 0 L 3.171875 -13.75 L 7.828125 -13.75 L 5.96875 0 L 3.359375 0 L 3.671875 -2.21875 L 2.015625 -2.21875 L 1.34375 0 Z M 2.734375 -4.421875 L 3.984375 -4.421875 L 4.96875 -11.40625 L 4.84375 -11.40625 Z M 2.734375 -4.421875 "/></g></g><g style="fill:#ffcc00;fill-opacity:1;"><g transform="translate(236.360024, 241.899419)"><path style="stroke:none" d="M 2.28125 0.125 C 1.175781 0.125 0.414062 -0.210938 0 -0.890625 C -0.425781 -1.566406 -0.492188 -2.519531 -0.203125 -3.75 L 1.296875 -10.28125 C 1.578125 -11.46875 2.070312 -12.363281 2.78125 -12.96875 C 3.5 -13.570312 4.410156 -13.875 5.515625 -13.875 C 6.628906 -13.875 7.40625 -13.570312 7.84375 -12.96875 C 8.28125 -12.363281 8.359375 -11.46875 8.078125 -10.28125 L 6.578125 -3.75 C 6.285156 -2.507812 5.773438 -1.550781 5.046875 -0.875 C 4.316406 -0.207031 3.394531 0.125 2.28125 0.125 Z M 2.859375 -2.40625 C 3.109375 -2.40625 3.300781 -2.507812 3.4375 -2.71875 C 3.570312 -2.9375 3.6875 -3.234375 3.78125 -3.609375 L 5.328125 -10.34375 C 5.390625 -10.632812 5.40625 -10.875 5.375 -11.0625 C 5.34375 -11.25 5.203125 -11.34375 4.953125 -11.34375 C 4.492188 -11.34375 4.1875 -10.992188 4.03125 -10.296875 L 2.484375 -3.59375 C 2.378906 -3.207031 2.351562 -2.910156 2.40625 -2.703125 C 2.457031 -2.503906 2.609375 -2.40625 2.859375 -2.40625 Z M 2.859375 -2.40625 "/></g></g><g style="fill:#ffcc00;fill-opacity:1;"><g transform="translate(244.454143, 241.899419)"><path style="stroke:none" d="M 2.265625 0.125 C 1.023438 0.125 0.203125 -0.179688 -0.203125 -0.796875 C -0.617188 -1.421875 -0.671875 -2.421875 -0.359375 -3.796875 L -0.046875 -5.140625 L 2.65625 -5.140625 L 2.25 -3.421875 C 2.09375 -2.742188 2.234375 -2.40625 2.671875 -2.40625 C 2.921875 -2.40625 3.109375 -2.472656 3.234375 -2.609375 C 3.367188 -2.753906 3.472656 -3 3.546875 -3.34375 C 3.660156 -3.789062 3.691406 -4.160156 3.640625 -4.453125 C 3.597656 -4.742188 3.519531 -4.988281 3.40625 -5.1875 C 3.289062 -5.382812 3.066406 -5.691406 2.734375 -6.109375 L 1.828125 -7.296875 C 1.117188 -8.191406 0.890625 -9.179688 1.140625 -10.265625 C 1.398438 -11.441406 1.867188 -12.335938 2.546875 -12.953125 C 3.234375 -13.566406 4.097656 -13.875 5.140625 -13.875 C 6.367188 -13.875 7.179688 -13.546875 7.578125 -12.890625 C 7.972656 -12.234375 8.003906 -11.207031 7.671875 -9.8125 L 4.875 -9.8125 L 5.09375 -10.75 C 5.132812 -10.9375 5.113281 -11.082031 5.03125 -11.1875 C 4.957031 -11.289062 4.832031 -11.34375 4.65625 -11.34375 C 4.4375 -11.34375 4.257812 -11.28125 4.125 -11.15625 C 3.988281 -11.039062 3.898438 -10.882812 3.859375 -10.6875 C 3.753906 -10.238281 3.898438 -9.773438 4.296875 -9.296875 L 5.546875 -7.765625 C 5.835938 -7.398438 6.066406 -7.050781 6.234375 -6.71875 C 6.410156 -6.394531 6.519531 -6.007812 6.5625 -5.5625 C 6.613281 -5.125 6.570312 -4.601562 6.4375 -4 C 6.113281 -2.644531 5.625 -1.617188 4.96875 -0.921875 C 4.3125 -0.222656 3.410156 0.125 2.265625 0.125 Z M 2.265625 0.125 "/></g></g><g style="fill:#ffcc00;fill-opacity:1;"><g transform="translate(252.149589, 241.899419)"><path style="stroke:none" d=""/></g></g><g clip-rule="nonzero" clip-path="url(#3e8423cdc4)"><g clip-rule="nonzero" clip-path="url(#a370bbbfd4)"><g clip-rule="nonzero" clip-path="url(#eaa82dc96d)"><path style=" stroke:none;fill-rule:nonzero;fill:#191919;fill-opacity:1;" d="M 246.304688 173.433594 L 232.523438 189.703125 L 238.515625 192.277344 L 227.734375 208.800781 L 250.9375 191.246094 L 245.300781 188.757812 L 258.753906 179.101562 Z M 246.304688 173.433594 "/></g></g></g></g></svg>