<?xml version="1.0" encoding="iso-8859-1"?>
<!-- Uploaded to: SVG Repo, www.svgrepo.com, Generator: SVG Repo Mixer Tools -->
<svg fill="#000000" height="800px" width="800px" version="1.1" id="Layer_1" xmlns="http://www.w3.org/2000/svg" xmlns:xlink="http://www.w3.org/1999/xlink" 
	 viewBox="0 0 512.002 512.002" xml:space="preserve">
<g>
	<g>
		<path d="M470.252,397.776v-1.998c0-29.796-20.232-55.473-49.2-62.441l-26.989-6.493v-61.456h13.023v-33.024
			c0-21.007-17.09-38.097-38.097-38.097H209.209c-21.007,0-38.097,17.09-38.097,38.097v33.024h13.023v10.955l-47.936-11.532
			L84.741,2.394H0v30.416h59.71l54.124,276.011l12.254,62.492C100.705,382.321,82.9,407.614,82.9,436.998
			c0,39.462,32.105,71.567,71.567,71.567c34.242,0,62.93-24.18,69.924-56.359h173.712c-0.001,0.15-0.011,0.297-0.011,0.447
			c0,31.405,25.55,56.955,56.955,56.955s56.955-25.55,56.955-56.955C512,426.516,494.295,404.448,470.252,397.776z M201.527,232.365
			c0-4.236,3.445-7.681,7.681-7.681h159.781c4.236,0,7.681,3.445,7.681,7.681v2.609H201.527V232.365z M363.648,265.39v54.139
			l-145.071-34.9l-4.027-0.968V265.39H363.648z M154.465,478.149c-22.691,0-41.151-18.46-41.151-41.151
			c0-19.833,14.103-36.432,32.807-40.3l0.203-0.04c0.187-0.038,0.377-0.066,0.566-0.101c0.531-0.098,1.063-0.193,1.596-0.272
			c0.062-0.009,0.125-0.015,0.187-0.023c0.599-0.085,1.199-0.16,1.801-0.219c0.118-0.011,0.237-0.017,0.356-0.027
			c0.54-0.048,1.082-0.091,1.622-0.119c0.668-0.032,1.339-0.051,2.016-0.051c22.69,0,41.15,18.46,41.15,41.151
			S177.155,478.149,154.465,478.149z M407.162,421.792H224.406c-0.145-0.667-0.312-1.326-0.477-1.986
			c-0.065-0.265-0.123-0.532-0.191-0.795c-0.279-1.073-0.581-2.135-0.907-3.189c-0.064-0.206-0.137-0.406-0.203-0.61
			c-0.27-0.841-0.55-1.678-0.85-2.505c-0.126-0.349-0.263-0.693-0.393-1.038c-0.258-0.679-0.522-1.356-0.8-2.026
			c-0.155-0.374-0.316-0.745-0.477-1.116c-0.279-0.641-0.567-1.276-0.864-1.907c-0.171-0.364-0.344-0.727-0.521-1.088
			c-0.319-0.649-0.651-1.291-0.989-1.928c-0.17-0.322-0.337-0.646-0.512-0.965c-0.415-0.754-0.846-1.498-1.287-2.236
			c-0.113-0.188-0.218-0.38-0.332-0.567c-0.568-0.93-1.156-1.846-1.764-2.749c-0.116-0.171-0.239-0.338-0.357-0.508
			c-0.493-0.718-0.995-1.427-1.512-2.125c-0.21-0.283-0.427-0.559-0.641-0.838c-0.444-0.58-0.892-1.156-1.354-1.722
			c-0.243-0.298-0.49-0.593-0.737-0.887c-0.455-0.541-0.919-1.076-1.39-1.604c-0.253-0.285-0.508-0.569-0.766-0.85
			c-0.502-0.544-1.014-1.078-1.531-1.606c-0.237-0.242-0.47-0.488-0.711-0.726c-0.645-0.64-1.303-1.264-1.971-1.88
			c-0.122-0.112-0.238-0.229-0.361-0.34c-0.808-0.733-1.632-1.447-2.473-2.143c-0.163-0.135-0.333-0.263-0.497-0.396
			c-0.67-0.544-1.346-1.08-2.036-1.601c-0.277-0.21-0.56-0.411-0.839-0.615c-0.593-0.435-1.19-0.863-1.798-1.279
			c-0.314-0.216-0.633-0.428-0.951-0.639c-0.595-0.394-1.196-0.781-1.804-1.158c-0.322-0.2-0.645-0.4-0.97-0.595
			c-0.643-0.385-1.295-0.758-1.951-1.123c-0.293-0.164-0.584-0.332-0.879-0.492c-0.828-0.446-1.667-0.875-2.514-1.29
			c-0.128-0.063-0.251-0.13-0.379-0.192c-0.99-0.477-1.992-0.93-3.006-1.362c-0.231-0.098-0.468-0.188-0.701-0.283
			c-0.774-0.319-1.551-0.631-2.338-0.924c-0.348-0.13-0.701-0.25-1.05-0.374c-0.686-0.243-1.376-0.48-2.071-0.703
			c-0.385-0.124-0.772-0.242-1.159-0.359c-0.682-0.206-1.369-0.401-2.058-0.586c-0.39-0.105-0.78-0.211-1.172-0.308
			c-0.727-0.182-1.46-0.349-2.196-0.508c-0.356-0.077-0.709-0.16-1.067-0.232c-0.937-0.189-1.881-0.356-2.83-0.507
			c-0.157-0.025-0.312-0.058-0.47-0.081c-1.109-0.169-2.227-0.31-3.353-0.428c-0.319-0.033-0.642-0.053-0.962-0.082
			c-0.807-0.073-1.615-0.139-2.429-0.186c-0.421-0.023-0.844-0.036-1.266-0.053c-0.452-0.018-0.901-0.048-1.356-0.057l-0.354-1.805
			l-12.945-66l41.498,9.983l209.929,50.502l19.876,4.781c15.248,3.668,25.899,17.184,25.899,32.869v1.962
			C426.395,401.434,414.757,409.954,407.162,421.792z M455.045,479.193c-14.634,0-26.54-11.906-26.54-26.54
			c0-3.567,0.712-6.968,1.993-10.078c0.217-0.528,0.45-1.045,0.698-1.553c0.086-0.175,0.177-0.348,0.267-0.521
			c0.159-0.309,0.326-0.612,0.495-0.912c3.081-5.424,8.012-9.665,13.935-11.848c0.071-0.025,0.142-0.049,0.213-0.074
			c0.581-0.209,1.173-0.393,1.772-0.562c0.267-0.074,0.533-0.148,0.802-0.215c0.251-0.062,0.504-0.121,0.757-0.175
			c0.46-0.098,0.924-0.189,1.392-0.263c0.146-0.023,0.292-0.045,0.439-0.065c0.497-0.07,0.998-0.127,1.503-0.169
			c0.163-0.014,0.326-0.026,0.489-0.037c0.591-0.04,1.186-0.067,1.785-0.067c14.634,0,26.54,11.906,26.54,26.54
			S469.679,479.193,455.045,479.193z"/>
	</g>
</g>
</svg>